<svg version="1.1" xmlns="http://www.w3.org/2000/svg" xmlns:xlink="http://www.w3.org/1999/xlink" width="748" height="388"><defs/><g><text fill="#eeeeee" stroke="none" font-family="Arial" font-size="24px" font-style="normal" font-weight="normal" text-decoration="none" x="0" y="0">UNREGISTERED</text><text fill="#eeeeee" stroke="none" font-family="Arial" font-size="24px" font-style="normal" font-weight="normal" text-decoration="none" x="0" y="30">UNREGISTERED</text><text fill="#eeeeee" stroke="none" font-family="Arial" font-size="24px" font-style="normal" font-weight="normal" text-decoration="none" x="0" y="60">UNREGISTERED</text><text fill="#eeeeee" stroke="none" font-family="Arial" font-size="24px" font-style="normal" font-weight="normal" text-decoration="none" x="0" y="90">UNREGISTERED</text><text fill="#eeeeee" stroke="none" font-family="Arial" font-size="24px" font-style="normal" font-weight="normal" text-decoration="none" x="0" y="120">UNREGISTERED</text><text fill="#eeeeee" stroke="none" font-family="Arial" font-size="24px" font-style="normal" font-weight="normal" text-decoration="none" x="0" y="150">UNREGISTERED</text><text fill="#eeeeee" stroke="none" font-family="Arial" font-size="24px" font-style="normal" font-weight="normal" text-decoration="none" x="0" y="180">UNREGISTERED</text><text fill="#eeeeee" stroke="none" font-family="Arial" font-size="24px" font-style="normal" font-weight="normal" text-decoration="none" x="0" y="210">UNREGISTERED</text><text fill="#eeeeee" stroke="none" font-family="Arial" font-size="24px" font-style="normal" font-weight="normal" text-decoration="none" x="0" y="240">UNREGISTERED</text><text fill="#eeeeee" stroke="none" font-family="Arial" font-size="24px" font-style="normal" font-weight="normal" text-decoration="none" x="0" y="270">UNREGISTERED</text><text fill="#eeeeee" stroke="none" font-family="Arial" font-size="24px" font-style="normal" font-weight="normal" text-decoration="none" x="0" y="300">UNREGISTERED</text><text fill="#eeeeee" stroke="none" font-family="Arial" font-size="24px" font-style="normal" font-weight="normal" text-decoration="none" x="0" y="330">UNREGISTERED</text><text fill="#eeeeee" stroke="none" font-family="Arial" font-size="24px" font-style="normal" font-weight="normal" text-decoration="none" x="0" y="360">UNREGISTERED</text><text fill="#eeeeee" stroke="none" font-family="Arial" font-size="24px" font-style="normal" font-weight="normal" text-decoration="none" x="200" y="0">UNREGISTERED</text><text fill="#eeeeee" stroke="none" font-family="Arial" font-size="24px" font-style="normal" font-weight="normal" text-decoration="none" x="200" y="30">UNREGISTERED</text><text fill="#eeeeee" stroke="none" font-family="Arial" font-size="24px" font-style="normal" font-weight="normal" text-decoration="none" x="200" y="60">UNREGISTERED</text><text fill="#eeeeee" stroke="none" font-family="Arial" font-size="24px" font-style="normal" font-weight="normal" text-decoration="none" x="200" y="90">UNREGISTERED</text><text fill="#eeeeee" stroke="none" font-family="Arial" font-size="24px" font-style="normal" font-weight="normal" text-decoration="none" x="200" y="120">UNREGISTERED</text><text fill="#eeeeee" stroke="none" font-family="Arial" font-size="24px" font-style="normal" font-weight="normal" text-decoration="none" x="200" y="150">UNREGISTERED</text><text fill="#eeeeee" stroke="none" font-family="Arial" font-size="24px" font-style="normal" font-weight="normal" text-decoration="none" x="200" y="180">UNREGISTERED</text><text fill="#eeeeee" stroke="none" font-family="Arial" font-size="24px" font-style="normal" font-weight="normal" text-decoration="none" x="200" y="210">UNREGISTERED</text><text fill="#eeeeee" stroke="none" font-family="Arial" font-size="24px" font-style="normal" font-weight="normal" text-decoration="none" x="200" y="240">UNREGISTERED</text><text fill="#eeeeee" stroke="none" font-family="Arial" font-size="24px" font-style="normal" font-weight="normal" text-decoration="none" x="200" y="270">UNREGISTERED</text><text fill="#eeeeee" stroke="none" font-family="Arial" font-size="24px" font-style="normal" font-weight="normal" text-decoration="none" x="200" y="300">UNREGISTERED</text><text fill="#eeeeee" stroke="none" font-family="Arial" font-size="24px" font-style="normal" font-weight="normal" text-decoration="none" x="200" y="330">UNREGISTERED</text><text fill="#eeeeee" stroke="none" font-family="Arial" font-size="24px" font-style="normal" font-weight="normal" text-decoration="none" x="200" y="360">UNREGISTERED</text><text fill="#eeeeee" stroke="none" font-family="Arial" font-size="24px" font-style="normal" font-weight="normal" text-decoration="none" x="400" y="0">UNREGISTERED</text><text fill="#eeeeee" stroke="none" font-family="Arial" font-size="24px" font-style="normal" font-weight="normal" text-decoration="none" x="400" y="30">UNREGISTERED</text><text fill="#eeeeee" stroke="none" font-family="Arial" font-size="24px" font-style="normal" font-weight="normal" text-decoration="none" x="400" y="60">UNREGISTERED</text><text fill="#eeeeee" stroke="none" font-family="Arial" font-size="24px" font-style="normal" font-weight="normal" text-decoration="none" x="400" y="90">UNREGISTERED</text><text fill="#eeeeee" stroke="none" font-family="Arial" font-size="24px" font-style="normal" font-weight="normal" text-decoration="none" x="400" y="120">UNREGISTERED</text><text fill="#eeeeee" stroke="none" font-family="Arial" font-size="24px" font-style="normal" font-weight="normal" text-decoration="none" x="400" y="150">UNREGISTERED</text><text fill="#eeeeee" stroke="none" font-family="Arial" font-size="24px" font-style="normal" font-weight="normal" text-decoration="none" x="400" y="180">UNREGISTERED</text><text fill="#eeeeee" stroke="none" font-family="Arial" font-size="24px" font-style="normal" font-weight="normal" text-decoration="none" x="400" y="210">UNREGISTERED</text><text fill="#eeeeee" stroke="none" font-family="Arial" font-size="24px" font-style="normal" font-weight="normal" text-decoration="none" x="400" y="240">UNREGISTERED</text><text fill="#eeeeee" stroke="none" font-family="Arial" font-size="24px" font-style="normal" font-weight="normal" text-decoration="none" x="400" y="270">UNREGISTERED</text><text fill="#eeeeee" stroke="none" font-family="Arial" font-size="24px" font-style="normal" font-weight="normal" text-decoration="none" x="400" y="300">UNREGISTERED</text><text fill="#eeeeee" stroke="none" font-family="Arial" font-size="24px" font-style="normal" font-weight="normal" text-decoration="none" x="400" y="330">UNREGISTERED</text><text fill="#eeeeee" stroke="none" font-family="Arial" font-size="24px" font-style="normal" font-weight="normal" text-decoration="none" x="400" y="360">UNREGISTERED</text><text fill="#eeeeee" stroke="none" font-family="Arial" font-size="24px" font-style="normal" font-weight="normal" text-decoration="none" x="600" y="0">UNREGISTERED</text><text fill="#eeeeee" stroke="none" font-family="Arial" font-size="24px" font-style="normal" font-weight="normal" text-decoration="none" x="600" y="30">UNREGISTERED</text><text fill="#eeeeee" stroke="none" font-family="Arial" font-size="24px" font-style="normal" font-weight="normal" text-decoration="none" x="600" y="60">UNREGISTERED</text><text fill="#eeeeee" stroke="none" font-family="Arial" font-size="24px" font-style="normal" font-weight="normal" text-decoration="none" x="600" y="90">UNREGISTERED</text><text fill="#eeeeee" stroke="none" font-family="Arial" font-size="24px" font-style="normal" font-weight="normal" text-decoration="none" x="600" y="120">UNREGISTERED</text><text fill="#eeeeee" stroke="none" font-family="Arial" font-size="24px" font-style="normal" font-weight="normal" text-decoration="none" x="600" y="150">UNREGISTERED</text><text fill="#eeeeee" stroke="none" font-family="Arial" font-size="24px" font-style="normal" font-weight="normal" text-decoration="none" x="600" y="180">UNREGISTERED</text><text fill="#eeeeee" stroke="none" font-family="Arial" font-size="24px" font-style="normal" font-weight="normal" text-decoration="none" x="600" y="210">UNREGISTERED</text><text fill="#eeeeee" stroke="none" font-family="Arial" font-size="24px" font-style="normal" font-weight="normal" text-decoration="none" x="600" y="240">UNREGISTERED</text><text fill="#eeeeee" stroke="none" font-family="Arial" font-size="24px" font-style="normal" font-weight="normal" text-decoration="none" x="600" y="270">UNREGISTERED</text><text fill="#eeeeee" stroke="none" font-family="Arial" font-size="24px" font-style="normal" font-weight="normal" text-decoration="none" x="600" y="300">UNREGISTERED</text><text fill="#eeeeee" stroke="none" font-family="Arial" font-size="24px" font-style="normal" font-weight="normal" text-decoration="none" x="600" y="330">UNREGISTERED</text><text fill="#eeeeee" stroke="none" font-family="Arial" font-size="24px" font-style="normal" font-weight="normal" text-decoration="none" x="600" y="360">UNREGISTERED</text><g transform="translate(-134,-22) scale(1,1)"><path fill="#ffffff" stroke="none" d="M 144 128 L 461 128 L 471 138 L 471 256 L 144 256 L 144 128"/></g><g transform="translate(-134,-22) scale(1,1)"><path fill="none" stroke="#000000" d="M 144 128 L 461 128 L 471 138 L 471 256 L 144 256 L 144 128 L 144 128" stroke-miterlimit="10"/></g><g transform="translate(-134,-22) scale(1,1)"><path fill="none" stroke="#000000" d="M 461 128 L 461 138 L 471 138 L 461 128" stroke-miterlimit="10"/></g><g transform="translate(-134,-22) scale(1,1)"><g><path fill="none" stroke="none"/><text fill="#000000" stroke="none" font-family="Arial" font-size="13px" font-style="normal" font-weight="normal" text-decoration="none" x="149" y="146">db := 0</text></g></g><g transform="translate(-134,-22) scale(1,1)"><g><path fill="none" stroke="none"/><text fill="#000000" stroke="none" font-family="Arial" font-size="13px" font-style="normal" font-weight="normal" text-decoration="none" x="149" y="161">forall trófea in trófeák loop</text></g></g><g transform="translate(-134,-22) scale(1,1)"><g><path fill="none" stroke="none"/><text fill="#000000" stroke="none" font-family="Arial" font-size="13px" font-style="normal" font-weight="normal" text-decoration="none" x="149" y="176">    if trófea.faj() = "elefánt" and trofea.getNem() = hím </text></g></g><g transform="translate(-134,-22) scale(1,1)"><g><path fill="none" stroke="none"/><text fill="#000000" stroke="none" font-family="Arial" font-size="13px" font-style="normal" font-weight="normal" text-decoration="none" x="149" y="191">    then</text></g></g><g transform="translate(-134,-22) scale(1,1)"><g><path fill="none" stroke="none"/><text fill="#000000" stroke="none" font-family="Arial" font-size="13px" font-style="normal" font-weight="normal" text-decoration="none" x="149" y="206">        db := db + 1</text></g></g><g transform="translate(-134,-22) scale(1,1)"><g><path fill="none" stroke="none"/><text fill="#000000" stroke="none" font-family="Arial" font-size="13px" font-style="normal" font-weight="normal" text-decoration="none" x="149" y="221">    endif</text></g></g><g transform="translate(-134,-22) scale(1,1)"><g><path fill="none" stroke="none"/><text fill="#000000" stroke="none" font-family="Arial" font-size="13px" font-style="normal" font-weight="normal" text-decoration="none" x="149" y="236">endloop</text></g></g><g transform="translate(-134,-22) scale(1,1)"><g><path fill="none" stroke="none"/><text fill="#000000" stroke="none" font-family="Arial" font-size="13px" font-style="normal" font-weight="normal" text-decoration="none" x="149" y="251">return db</text></g></g><g transform="translate(-134,-22) scale(1,1)"><rect fill="#C0C0C0" stroke="none" x="175" y="39" width="194.9482421875" height="85" opacity="0.2"/></g><g transform="translate(-134,-22) scale(1,1)"><rect fill="#ffffff" stroke="none" x="168" y="32" width="194.9482421875" height="85"/></g><g transform="translate(-134,-22) scale(1,1)"><path fill="none" stroke="#000000" d="M 168 32 L 362.9482421875 32 L 362.9482421875 117 L 168 117 L 168 32 Z Z" stroke-miterlimit="10"/></g><g transform="translate(-134,-22) scale(1,1)"><path fill="none" stroke="#000000" d="M 168 57 L 362.9482421875 57" stroke-miterlimit="10"/></g><g transform="translate(-134,-22) scale(1,1)"><path fill="none" stroke="#000000" d="M 168 95 L 362.9482421875 95" stroke-miterlimit="10"/></g><g transform="translate(-134,-22) scale(1,1)"><g><path fill="none" stroke="none"/><text fill="#000000" stroke="none" font-family="Arial" font-size="13px" font-style="normal" font-weight="bold" text-decoration="none" x="244.276123046875" y="51.5">Vadász</text></g></g><g transform="translate(-134,-22) scale(1,1)"><g><path fill="none" stroke="none"/><text fill="#000000" stroke="none" font-family="Arial" font-size="13px" font-style="normal" font-weight="normal" text-decoration="none" x="173" y="74.5">-név: string</text></g></g><g transform="translate(-134,-22) scale(1,1)"><g><path fill="none" stroke="none"/><text fill="#000000" stroke="none" font-family="Arial" font-size="13px" font-style="normal" font-weight="normal" text-decoration="none" x="173" y="89.5">-kor: int</text></g></g><g transform="translate(-134,-22) scale(1,1)"><g><path fill="none" stroke="none"/><text fill="#000000" stroke="none" font-family="Arial" font-size="13px" font-style="normal" font-weight="normal" text-decoration="none" x="173" y="112.5">+HímOroszlánDb(): int {query} ○</text></g></g><g transform="translate(-134,-22) scale(1,1)"><rect fill="#C0C0C0" stroke="none" x="511" y="79" width="124.96533203125" height="100" opacity="0.2"/></g><g transform="translate(-134,-22) scale(1,1)"><rect fill="#ffffff" stroke="none" x="504" y="72" width="124.96533203125" height="100"/></g><g transform="translate(-134,-22) scale(1,1)"><path fill="none" stroke="#000000" d="M 504 72 L 628.96533203125 72 L 628.96533203125 172 L 504 172 L 504 72 Z Z" stroke-miterlimit="10"/></g><g transform="translate(-134,-22) scale(1,1)"><path fill="none" stroke="#000000" d="M 504 97 L 628.96533203125 97" stroke-miterlimit="10"/></g><g transform="translate(-134,-22) scale(1,1)"><path fill="none" stroke="#000000" d="M 504 150 L 628.96533203125 150" stroke-miterlimit="10"/></g><g transform="translate(-134,-22) scale(1,1)"><g><path fill="none" stroke="none"/><text fill="#000000" stroke="none" font-family="Arial" font-size="13px" font-style="normal" font-weight="bold" text-decoration="none" x="547.93798828125" y="91.5">Trófea</text></g></g><g transform="translate(-134,-22) scale(1,1)"><g><path fill="none" stroke="none"/><text fill="#000000" stroke="none" font-family="Arial" font-size="13px" font-style="normal" font-weight="normal" text-decoration="none" x="509" y="114.5">-hely: string</text></g></g><g transform="translate(-134,-22) scale(1,1)"><g><path fill="none" stroke="none"/><text fill="#000000" stroke="none" font-family="Arial" font-size="13px" font-style="normal" font-weight="normal" text-decoration="none" x="509" y="129.5">-dátum: string</text></g></g><g transform="translate(-134,-22) scale(1,1)"><g><path fill="none" stroke="none"/><text fill="#000000" stroke="none" font-family="Arial" font-size="13px" font-style="normal" font-weight="normal" text-decoration="none" x="509" y="144.5">-súly: int</text></g></g><g transform="translate(-134,-22) scale(1,1)"><g><path fill="none" stroke="none"/><text fill="#000000" stroke="none" font-family="Arial" font-size="13px" font-style="italic" font-weight="normal" text-decoration="none" x="509" y="167.5">+faj(): string {virtual}</text></g></g><g transform="translate(-134,-22) scale(1,1)"><path fill="none" stroke="#000000" d="M 363 99 L 504 99" stroke-miterlimit="10"/></g><g transform="translate(-134,-22) scale(1,1)"><path fill="none" stroke="#000000" d="M 493.83732514237585 103.20951775601598 L 504 99 L 493.83732514237585 94.79048224398402" stroke-miterlimit="10"/></g><g transform="translate(-134,-22) scale(1,1)"><g><path fill="none" stroke="none"/><text fill="#000000" stroke="none" font-family="Arial" font-size="13px" font-style="normal" font-weight="normal" text-decoration="none" x="404.5" y="115.5">birtokol ▶</text></g></g><g transform="translate(-134,-22) scale(1,1)"><g><path fill="none" stroke="none"/><text fill="#000000" stroke="none" font-family="Arial" font-size="13px" font-style="normal" font-weight="normal" text-decoration="none" x="455.5" y="90.5">-trófeák</text></g></g><g transform="translate(-134,-22) scale(1,1)"><g><path fill="none" stroke="none"/><text fill="#000000" stroke="none" font-family="Arial" font-size="13px" font-style="normal" font-weight="normal" text-decoration="none" x="487.5" y="117.5">*</text></g></g><g transform="translate(-134,-22) scale(1,1)"><rect fill="#C0C0C0" stroke="none" x="303" y="279" width="148.71826171875" height="85" opacity="0.2"/></g><g transform="translate(-134,-22) scale(1,1)"><rect fill="#ffffff" stroke="none" x="296" y="272" width="148.71826171875" height="85"/></g><g transform="translate(-134,-22) scale(1,1)"><path fill="none" stroke="#000000" d="M 296 272 L 444.71826171875 272 L 444.71826171875 357 L 296 357 L 296 272 Z Z" stroke-miterlimit="10"/></g><g transform="translate(-134,-22) scale(1,1)"><path fill="none" stroke="#000000" d="M 296 297 L 444.71826171875 297" stroke-miterlimit="10"/></g><g transform="translate(-134,-22) scale(1,1)"><path fill="none" stroke="#000000" d="M 296 335 L 444.71826171875 335" stroke-miterlimit="10"/></g><g transform="translate(-134,-22) scale(1,1)"><g><path fill="none" stroke="none"/><text fill="#000000" stroke="none" font-family="Arial" font-size="13px" font-style="normal" font-weight="bold" text-decoration="none" x="331.578125" y="291.5">ElefántTrófea</text></g></g><g transform="translate(-134,-22) scale(1,1)"><g><path fill="none" stroke="none"/><text fill="#000000" stroke="none" font-family="Arial" font-size="13px" font-style="normal" font-weight="normal" text-decoration="none" x="301" y="314.5">-agyar1Hossz: int</text></g></g><g transform="translate(-134,-22) scale(1,1)"><g><path fill="none" stroke="none"/><text fill="#000000" stroke="none" font-family="Arial" font-size="13px" font-style="normal" font-weight="normal" text-decoration="none" x="301" y="329.5">-agyar2Hossz: int</text></g></g><g transform="translate(-134,-22) scale(1,1)"><g><path fill="none" stroke="none"/><text fill="#000000" stroke="none" font-family="Arial" font-size="13px" font-style="normal" font-weight="normal" text-decoration="none" x="301" y="352.5">+faj(): string {override} ○</text></g></g><g transform="translate(-134,-22) scale(1,1)"><path fill="none" stroke="#000000" d="M 370 272 L 370 232 L 552 232 L 552 172" stroke-miterlimit="10"/></g><g transform="translate(-134,-22) scale(1,1)"><path fill="#FFFFFF" stroke="none" d="M 560.419035512032 192.3253497152483 L 552 172 L 543.580964487968 192.3253497152483"/></g><g transform="translate(-134,-22) scale(1,1)"><path fill="none" stroke="#000000" d="M 560.419035512032 192.3253497152483 L 552 172 L 543.580964487968 192.3253497152483 L 560.419035512032 192.3253497152483" stroke-miterlimit="10"/></g><g transform="translate(-134,-22) scale(1,1)"><rect fill="#C0C0C0" stroke="none" x="469" y="279" width="148.71826171875" height="70" opacity="0.2"/></g><g transform="translate(-134,-22) scale(1,1)"><rect fill="#ffffff" stroke="none" x="462" y="272" width="148.71826171875" height="70"/></g><g transform="translate(-134,-22) scale(1,1)"><path fill="none" stroke="#000000" d="M 462 272 L 610.71826171875 272 L 610.71826171875 342 L 462 342 L 462 272 Z Z" stroke-miterlimit="10"/></g><g transform="translate(-134,-22) scale(1,1)"><path fill="none" stroke="#000000" d="M 462 297 L 610.71826171875 297" stroke-miterlimit="10"/></g><g transform="translate(-134,-22) scale(1,1)"><path fill="none" stroke="#000000" d="M 462 320 L 610.71826171875 320" stroke-miterlimit="10"/></g><g transform="translate(-134,-22) scale(1,1)"><g><path fill="none" stroke="none"/><text fill="#000000" stroke="none" font-family="Arial" font-size="13px" font-style="normal" font-weight="bold" text-decoration="none" x="489.284912109375" y="291.5">OrrszarvúTrófea</text></g></g><g transform="translate(-134,-22) scale(1,1)"><g><path fill="none" stroke="none"/><text fill="#000000" stroke="none" font-family="Arial" font-size="13px" font-style="normal" font-weight="normal" text-decoration="none" x="467" y="314.5">-orrszarvSúly: int</text></g></g><g transform="translate(-134,-22) scale(1,1)"><g><path fill="none" stroke="none"/><text fill="#000000" stroke="none" font-family="Arial" font-size="13px" font-style="normal" font-weight="normal" text-decoration="none" x="467" y="337.5">+faj(): string {override} ○</text></g></g><g transform="translate(-134,-22) scale(1,1)"><rect fill="#C0C0C0" stroke="none" x="631" y="279" width="197.95703125" height="85" opacity="0.2"/></g><g transform="translate(-134,-22) scale(1,1)"><rect fill="#ffffff" stroke="none" x="624" y="272" width="197.95703125" height="85"/></g><g transform="translate(-134,-22) scale(1,1)"><path fill="none" stroke="#000000" d="M 624 272 L 821.95703125 272 L 821.95703125 357 L 624 357 L 624 272 Z Z" stroke-miterlimit="10"/></g><g transform="translate(-134,-22) scale(1,1)"><path fill="none" stroke="#000000" d="M 624 297 L 821.95703125 297" stroke-miterlimit="10"/></g><g transform="translate(-134,-22) scale(1,1)"><path fill="none" stroke="#000000" d="M 624 320 L 821.95703125 320" stroke-miterlimit="10"/></g><g transform="translate(-134,-22) scale(1,1)"><g><path fill="none" stroke="none"/><text fill="#000000" stroke="none" font-family="Arial" font-size="13px" font-style="normal" font-weight="bold" text-decoration="none" x="678.42431640625" y="291.5">OroszlánTrófea</text></g></g><g transform="translate(-134,-22) scale(1,1)"><g><path fill="none" stroke="none"/><text fill="#000000" stroke="none" font-family="Arial" font-size="13px" font-style="normal" font-weight="normal" text-decoration="none" x="629" y="314.5">-nem: Nem ○</text></g></g><g transform="translate(-134,-22) scale(1,1)"><g><path fill="none" stroke="none"/><text fill="#000000" stroke="none" font-family="Arial" font-size="13px" font-style="normal" font-weight="normal" text-decoration="none" x="629" y="337.5">+faj(): string {override} ○</text></g></g><g transform="translate(-134,-22) scale(1,1)"><g><path fill="none" stroke="none"/><text fill="#000000" stroke="none" font-family="Arial" font-size="13px" font-style="normal" font-weight="normal" text-decoration="none" x="629" y="352.5">«getter»+getNem(): Nem {query}</text></g></g><g transform="translate(-134,-22) scale(1,1)"><path fill="none" stroke="#000000" d="M 552 272 L 552 172" stroke-miterlimit="10"/></g><g transform="translate(-134,-22) scale(1,1)"><path fill="#FFFFFF" stroke="none" d="M 560.419035512032 192.3253497152483 L 552 172 L 543.580964487968 192.3253497152483"/></g><g transform="translate(-134,-22) scale(1,1)"><path fill="none" stroke="#000000" d="M 560.419035512032 192.3253497152483 L 552 172 L 543.580964487968 192.3253497152483 L 560.419035512032 192.3253497152483" stroke-miterlimit="10"/></g><g transform="translate(-134,-22) scale(1,1)"><path fill="none" stroke="#000000" d="M 688 272 L 688 232 L 552 232 L 552 172" stroke-miterlimit="10"/></g><g transform="translate(-134,-22) scale(1,1)"><path fill="#FFFFFF" stroke="none" d="M 560.419035512032 192.3253497152483 L 552 172 L 543.580964487968 192.3253497152483"/></g><g transform="translate(-134,-22) scale(1,1)"><path fill="none" stroke="#000000" d="M 560.419035512032 192.3253497152483 L 552 172 L 543.580964487968 192.3253497152483 L 560.419035512032 192.3253497152483" stroke-miterlimit="10"/></g><g transform="translate(-134,-22) scale(1,1)"><path fill="#ffffff" stroke="none" d="M 496 352 L 613 352 L 623 362 L 623 375 L 496 375 L 496 352"/></g><g transform="translate(-134,-22) scale(1,1)"><path fill="none" stroke="#000000" d="M 496 352 L 613 352 L 623 362 L 623 375 L 496 375 L 496 352 L 496 352" stroke-miterlimit="10"/></g><g transform="translate(-134,-22) scale(1,1)"><path fill="none" stroke="#000000" d="M 613 352 L 613 362 L 623 362 L 613 352" stroke-miterlimit="10"/></g><g transform="translate(-134,-22) scale(1,1)"><g><path fill="none" stroke="none"/><text fill="#000000" stroke="none" font-family="Arial" font-size="13px" font-style="normal" font-weight="normal" text-decoration="none" x="501" y="370">return "orrszarvú"</text></g></g><g transform="translate(-134,-22) scale(1,1)"><path fill="#ffffff" stroke="none" d="M 744 240 L 861 240 L 871 250 L 871 263 L 744 263 L 744 240"/></g><g transform="translate(-134,-22) scale(1,1)"><path fill="none" stroke="#000000" d="M 744 240 L 861 240 L 871 250 L 871 263 L 744 263 L 744 240 L 744 240" stroke-miterlimit="10"/></g><g transform="translate(-134,-22) scale(1,1)"><path fill="none" stroke="#000000" d="M 861 240 L 861 250 L 871 250 L 861 240" stroke-miterlimit="10"/></g><g transform="translate(-134,-22) scale(1,1)"><g><path fill="none" stroke="none"/><text fill="#000000" stroke="none" font-family="Arial" font-size="13px" font-style="normal" font-weight="normal" text-decoration="none" x="749" y="258">return "oroszlán"</text></g></g><g transform="translate(-134,-22) scale(1,1)"><path fill="#ffffff" stroke="none" d="M 344 376 L 461 376 L 471 386 L 471 399 L 344 399 L 344 376"/></g><g transform="translate(-134,-22) scale(1,1)"><path fill="none" stroke="#000000" d="M 344 376 L 461 376 L 471 386 L 471 399 L 344 399 L 344 376 L 344 376" stroke-miterlimit="10"/></g><g transform="translate(-134,-22) scale(1,1)"><path fill="none" stroke="#000000" d="M 461 376 L 461 386 L 471 386 L 461 376" stroke-miterlimit="10"/></g><g transform="translate(-134,-22) scale(1,1)"><g><path fill="none" stroke="none"/><text fill="#000000" stroke="none" font-family="Arial" font-size="13px" font-style="normal" font-weight="normal" text-decoration="none" x="349" y="394">return "elefánt"</text></g></g><g transform="translate(-134,-22) scale(1,1)"><path fill="#ffffff" stroke="none" d="M 632 208 L 797 208 L 807 218 L 807 231 L 632 231 L 632 208"/></g><g transform="translate(-134,-22) scale(1,1)"><path fill="none" stroke="#000000" d="M 632 208 L 797 208 L 807 218 L 807 231 L 632 231 L 632 208 L 632 208" stroke-miterlimit="10"/></g><g transform="translate(-134,-22) scale(1,1)"><path fill="none" stroke="#000000" d="M 797 208 L 797 218 L 807 218 L 797 208" stroke-miterlimit="10"/></g><g transform="translate(-134,-22) scale(1,1)"><g><path fill="none" stroke="none"/><text fill="#000000" stroke="none" font-family="Arial" font-size="13px" font-style="normal" font-weight="normal" text-decoration="none" x="637" y="226">Nem=enum(hím, nőstény)</text></g></g><g transform="translate(-134,-22) scale(1,1)"><path fill="#ffffff" stroke="none" d="M 720 360 L 837 360 L 847 370 L 847 383 L 720 383 L 720 360"/></g><g transform="translate(-134,-22) scale(1,1)"><path fill="none" stroke="#000000" d="M 720 360 L 837 360 L 847 370 L 847 383 L 720 383 L 720 360 L 720 360" stroke-miterlimit="10"/></g><g transform="translate(-134,-22) scale(1,1)"><path fill="none" stroke="#000000" d="M 837 360 L 837 370 L 847 370 L 837 360" stroke-miterlimit="10"/></g><g transform="translate(-134,-22) scale(1,1)"><g><path fill="none" stroke="none"/><text fill="#000000" stroke="none" font-family="Arial" font-size="13px" font-style="normal" font-weight="normal" text-decoration="none" x="725" y="378">return nem</text></g></g></g></svg>